<svg xmlns="http://www.w3.org/2000/svg" viewBox="0 0 880 440" width="880" height="440" font-family="-apple-system, BlinkMacSystemFont, 'Segoe UI', 'Noto Sans', Helvetica, Arial, sans-serif" style="font-variant-numeric: tabular-nums">
<title>Checking your result stays in microseconds</title>
<rect width="880" height="440" rx="6" fill="#ffffff"/>
<text x="24.0" y="32.0" font-size="17" font-weight="600" fill="#1f2328" text-anchor="start">Checking your result stays in microseconds</text>
<text x="24.0" y="54.0" font-size="13" font-weight="400" fill="#59636e" text-anchor="start">Hash your sheet, then check_batch_inclusion on your row · one SHA-256 path hash per doubling of the sitting</text>
<line x1="24" y1="76" x2="42" y2="76" stroke="#2a78d6" stroke-width="2.5" stroke-linecap="round"/>
<text x="49.0" y="80.0" font-size="12.5" font-weight="400" fill="#1f2328" text-anchor="start">WebAssembly, in V8</text>
<line x1="204.6" y1="76" x2="222.6" y2="76" stroke="#eb6834" stroke-width="2.5" stroke-linecap="round"/>
<text x="229.6" y="80.0" font-size="12.5" font-weight="400" fill="#1f2328" text-anchor="start">Native x86-64</text>
<line x1="64" y1="382.0" x2="684" y2="382.0" stroke="#c8d1da" stroke-width="1"/>
<text x="54.0" y="386.0" font-size="12" font-weight="400" fill="#59636e" text-anchor="end">0</text>
<line x1="64" y1="335.7" x2="684" y2="335.7" stroke="#e6eaef" stroke-width="1"/>
<text x="54.0" y="339.7" font-size="12" font-weight="400" fill="#59636e" text-anchor="end">3 µs</text>
<line x1="64" y1="289.3" x2="684" y2="289.3" stroke="#e6eaef" stroke-width="1"/>
<text x="54.0" y="293.3" font-size="12" font-weight="400" fill="#59636e" text-anchor="end">6 µs</text>
<line x1="64" y1="243.0" x2="684" y2="243.0" stroke="#e6eaef" stroke-width="1"/>
<text x="54.0" y="247.0" font-size="12" font-weight="400" fill="#59636e" text-anchor="end">9 µs</text>
<line x1="64" y1="196.7" x2="684" y2="196.7" stroke="#e6eaef" stroke-width="1"/>
<text x="54.0" y="200.7" font-size="12" font-weight="400" fill="#59636e" text-anchor="end">12 µs</text>
<line x1="64" y1="150.3" x2="684" y2="150.3" stroke="#e6eaef" stroke-width="1"/>
<text x="54.0" y="154.3" font-size="12" font-weight="400" fill="#59636e" text-anchor="end">15 µs</text>
<line x1="64" y1="104.0" x2="684" y2="104.0" stroke="#e6eaef" stroke-width="1"/>
<text x="54.0" y="108.0" font-size="12" font-weight="400" fill="#59636e" text-anchor="end">18 µs</text>
<line x1="64.0" y1="382" x2="64.0" y2="387" stroke="#c8d1da" stroke-width="1"/>
<text x="64.0" y="403.0" font-size="12" font-weight="400" fill="#59636e" text-anchor="middle">10</text>
<line x1="188.0" y1="382" x2="188.0" y2="387" stroke="#c8d1da" stroke-width="1"/>
<text x="188.0" y="403.0" font-size="12" font-weight="400" fill="#59636e" text-anchor="middle">100</text>
<line x1="312.0" y1="382" x2="312.0" y2="387" stroke="#c8d1da" stroke-width="1"/>
<text x="312.0" y="403.0" font-size="12" font-weight="400" fill="#59636e" text-anchor="middle">1k</text>
<line x1="436.0" y1="382" x2="436.0" y2="387" stroke="#c8d1da" stroke-width="1"/>
<text x="436.0" y="403.0" font-size="12" font-weight="400" fill="#59636e" text-anchor="middle">10k</text>
<line x1="560.0" y1="382" x2="560.0" y2="387" stroke="#c8d1da" stroke-width="1"/>
<text x="560.0" y="403.0" font-size="12" font-weight="400" fill="#59636e" text-anchor="middle">100k</text>
<line x1="684.0" y1="382" x2="684.0" y2="387" stroke="#c8d1da" stroke-width="1"/>
<text x="684.0" y="403.0" font-size="12" font-weight="400" fill="#59636e" text-anchor="middle">1M</text>
<text x="374.0" y="430.0" font-size="12.5" font-weight="400" fill="#59636e" text-anchor="middle">Candidates in the sitting (log scale) · inclusion path: 4 hashes at 10, 20 at a million</text>
<path d="M64.0,307.9 L188.0,278.5 L312.0,246.1 L436.0,209.0 L560.0,178.1 L684.0,147.2" fill="none" stroke="#2a78d6" stroke-width="2" stroke-linejoin="round" stroke-linecap="round"/>
<circle cx="64.0" cy="307.9" r="4.5" fill="#2a78d6" stroke="#ffffff" stroke-width="2"/>
<circle cx="188.0" cy="278.5" r="4.5" fill="#2a78d6" stroke="#ffffff" stroke-width="2"/>
<circle cx="312.0" cy="246.1" r="4.5" fill="#2a78d6" stroke="#ffffff" stroke-width="2"/>
<circle cx="436.0" cy="209.0" r="4.5" fill="#2a78d6" stroke="#ffffff" stroke-width="2"/>
<circle cx="560.0" cy="178.1" r="4.5" fill="#2a78d6" stroke="#ffffff" stroke-width="2"/>
<circle cx="684.0" cy="147.2" r="4.5" fill="#2a78d6" stroke="#ffffff" stroke-width="2"/>
<path d="M64.0,361.9 L188.0,355.7 L312.0,351.1 L436.0,343.4 L560.0,337.2 L684.0,332.6" fill="none" stroke="#eb6834" stroke-width="2" stroke-linejoin="round" stroke-linecap="round"/>
<circle cx="64.0" cy="361.9" r="4.5" fill="#eb6834" stroke="#ffffff" stroke-width="2"/>
<circle cx="188.0" cy="355.7" r="4.5" fill="#eb6834" stroke="#ffffff" stroke-width="2"/>
<circle cx="312.0" cy="351.1" r="4.5" fill="#eb6834" stroke="#ffffff" stroke-width="2"/>
<circle cx="436.0" cy="343.4" r="4.5" fill="#eb6834" stroke="#ffffff" stroke-width="2"/>
<circle cx="560.0" cy="337.2" r="4.5" fill="#eb6834" stroke="#ffffff" stroke-width="2"/>
<circle cx="684.0" cy="332.6" r="4.5" fill="#eb6834" stroke="#ffffff" stroke-width="2"/>
<line x1="696.0" y1="147.2" x2="708.0" y2="147.2" stroke="#2a78d6" stroke-width="2.5" stroke-linecap="round"/>
<text x="714.0" y="151.2" font-size="12.5" font-weight="600" fill="#1f2328" text-anchor="start">WebAssembly</text>
<text x="714.0" y="167.2" font-size="12.5" font-weight="400" fill="#59636e" text-anchor="start">15.2 µs at 1M</text>
<line x1="696.0" y1="332.6" x2="708.0" y2="332.6" stroke="#eb6834" stroke-width="2.5" stroke-linecap="round"/>
<text x="714.0" y="336.6" font-size="12.5" font-weight="600" fill="#1f2328" text-anchor="start">Native</text>
<text x="714.0" y="352.6" font-size="12.5" font-weight="400" fill="#59636e" text-anchor="start">3.2 µs at 1M</text>
</svg>
